<svg xmlns="http://www.w3.org/2000/svg" viewBox="0 0 128 128" role="img" aria-label="CloakBrowser MCP">
  <defs>
    <linearGradient id="frame" x1="20" y1="14" x2="108" y2="114" gradientUnits="userSpaceOnUse">
      <stop stop-color="#14b8a6" />
      <stop offset="0.58" stop-color="#0f766e" />
      <stop offset="1" stop-color="#f97316" />
    </linearGradient>
    <linearGradient id="glass" x1="34" y1="32" x2="96" y2="94" gradientUnits="userSpaceOnUse">
      <stop stop-color="#f8fafc" />
      <stop offset="1" stop-color="#cbd5e1" />
    </linearGradient>
    <filter id="shadow" x="8" y="8" width="112" height="112" color-interpolation-filters="sRGB">
      <feDropShadow dx="0" dy="8" stdDeviation="8" flood-color="#020617" flood-opacity="0.32" />
    </filter>
  </defs>
  <rect width="128" height="128" rx="28" fill="#0f172a" />
  <path d="M23 34a14 14 0 0 1 14-14h54a14 14 0 0 1 14 14v60a14 14 0 0 1-14 14H37a14 14 0 0 1-14-14V34Z" fill="url(#frame)" filter="url(#shadow)" />
  <path d="M34 41a9 9 0 0 1 9-9h42a9 9 0 0 1 9 9v48a9 9 0 0 1-9 9H43a9 9 0 0 1-9-9V41Z" fill="#0f172a" />
  <path d="M34 42a10 10 0 0 1 10-10h40a10 10 0 0 1 10 10v7H34v-7Z" fill="#1e293b" />
  <circle cx="44" cy="40" r="3" fill="#f97316" />
  <circle cx="55" cy="40" r="3" fill="#fbbf24" />
  <circle cx="66" cy="40" r="3" fill="#14b8a6" />
  <path d="M64 53c14 0 25 8 29 21-7 3-12 10-12 18 0 4 1 8 3 11-5 3-12 5-20 5s-15-2-20-5c2-3 3-7 3-11 0-8-5-15-12-18 4-13 15-21 29-21Z" fill="#14b8a6" />
  <path d="M47 75c5-6 11-9 17-9s12 3 17 9c-4 8-10 12-17 12s-13-4-17-12Z" fill="url(#glass)" />
  <circle cx="64" cy="76" r="8" fill="#0f172a" />
  <circle cx="67" cy="73" r="2.5" fill="#f8fafc" />
  <path d="M89 91h13m-6-6v12M28 91h13m-6-6v12" stroke="#f97316" stroke-width="5" stroke-linecap="round" />
</svg>
